# xmcd
#
# Track frame offsets: 
#        150
#        16298
#        42278
#        68696
#
# Disc length: 1160 seconds
#
# Revision: 0
# Processed by: cddbd v1.5.2PL0 Copyright (c) Steve Scherf et al.
# Submitted via: ExactAudioCopy v0.99pb5
#
DISCID=29048604
DTITLE=The Dresden Dolls - Coin-Operated Boy [CDS)
DYEAR=2004
DGENRE=Cabaret
TTITLE0=Coin-Operated Boy
TTITLE1=Coin-Operated Boy (live)
TTITLE2=Baby One More Time (live)
TTITLE3=DATA: Coin-Operated Boy (Video)
EXTD=
EXTT0=
EXTT1=
EXTT2=
EXTT3=
PLAYORDER=
